<svg xmlns="http://www.w3.org/2000/svg" viewBox="0 0 64 64" fill="none">
  <rect width="64" height="64" rx="14" fill="#e6f0ff" />
  <rect x="1" y="1" width="62" height="62" rx="13" stroke="#0066ff" stroke-opacity="0.12" stroke-width="2" />
  <svg x="14.5" y="14.5" width="35" height="35" viewBox="0 0 24 24" fill="none">
    <path d="M12 21V7" stroke="#0066ff" stroke-width="2" stroke-linecap="round" stroke-linejoin="round" />
    <path d="m16 12 2 2 4-4" stroke="#0066ff" stroke-width="2" stroke-linecap="round" stroke-linejoin="round" />
    <path d="M22 6V4a1 1 0 0 0-1-1h-5a4 4 0 0 0-4 4 4 4 0 0 0-4-4H3a1 1 0 0 0-1 1v13a1 1 0 0 0 1 1h6a3 3 0 0 1 3 3 3 3 0 0 1 3-3h6a1 1 0 0 0 1-1v-1.3" stroke="#0066ff" stroke-width="2" stroke-linecap="round" stroke-linejoin="round" />
  </svg>
</svg>
